<svg width="50" height="50" viewBox="0 0 50 50" fill="none" xmlns="http://www.w3.org/2000/svg">
<g clip-path="url(#clip0_2_332)">
<path d="M43.0556 11.1113H31.9445V13.8891H43.0556V43.0558H31.9445V45.8335H45.8333V13.8891C45.8333 13.1524 45.5407 12.4459 45.0198 11.9249C44.4988 11.404 43.7923 11.1113 43.0556 11.1113Z" fill="#64A5EB"/>
<path d="M27.6111 4.16699H8.49999C7.71907 4.16699 6.97014 4.47721 6.41795 5.0294C5.86576 5.58159 5.55554 6.33052 5.55554 7.11144V45.8337H30.5555V7.11144C30.5555 6.33052 30.2453 5.58159 29.6931 5.0294C29.1409 4.47721 28.392 4.16699 27.6111 4.16699ZM27.7778 43.0559H23.6111V38.8892H12.5V43.0559H8.33332V7.11144C8.33332 7.08955 8.33763 7.06788 8.34601 7.04766C8.35438 7.02744 8.36666 7.00906 8.38214 6.99359C8.39761 6.97811 8.41598 6.96583 8.43621 6.95746C8.45643 6.94908 8.4781 6.94477 8.49999 6.94477H27.6111C27.633 6.94477 27.6547 6.94908 27.6749 6.95746C27.6951 6.96583 27.7135 6.97811 27.7289 6.99359C27.7444 7.00906 27.7567 7.02744 27.7651 7.04766C27.7735 7.06788 27.7778 7.08955 27.7778 7.11144V43.0559Z" fill="#64A5EB"/>
<path d="M11.1111 11.1113H13.8889V13.8891H11.1111V11.1113Z" fill="#64A5EB"/>
<path d="M16.6667 11.1113H19.4444V13.8891H16.6667V11.1113Z" fill="#64A5EB"/>
<path d="M22.2222 11.1113H25V13.8891H22.2222V11.1113Z" fill="#64A5EB"/>
<path d="M11.1111 18.0557H13.8889V20.8334H11.1111V18.0557Z" fill="#64A5EB"/>
<path d="M16.6667 18.0557H19.4444V20.8334H16.6667V18.0557Z" fill="#64A5EB"/>
<path d="M22.2222 18.0557H25V20.8334H22.2222V18.0557Z" fill="#64A5EB"/>
<path d="M11.1111 25H13.8889V27.7778H11.1111V25Z" fill="#64A5EB"/>
<path d="M16.6667 25H19.4444V27.7778H16.6667V25Z" fill="#64A5EB"/>
<path d="M22.2222 25H25V27.7778H22.2222V25Z" fill="#64A5EB"/>
<path d="M11.1111 31.9443H13.8889V34.7221H11.1111V31.9443Z" fill="#64A5EB"/>
<path d="M16.6667 31.9443H19.4444V34.7221H16.6667V31.9443Z" fill="#64A5EB"/>
<path d="M22.2222 31.9443H25V34.7221H22.2222V31.9443Z" fill="#64A5EB"/>
<path d="M31.9445 18.0557H34.7222V20.8334H31.9445V18.0557Z" fill="#64A5EB"/>
<path d="M37.5 18.0557H40.2778V20.8334H37.5V18.0557Z" fill="#64A5EB"/>
<path d="M31.9445 25H34.7222V27.7778H31.9445V25Z" fill="#64A5EB"/>
<path d="M37.5 25H40.2778V27.7778H37.5V25Z" fill="#64A5EB"/>
<path d="M31.9445 31.9443H34.7222V34.7221H31.9445V31.9443Z" fill="#64A5EB"/>
<path d="M37.5 31.9443H40.2778V34.7221H37.5V31.9443Z" fill="#64A5EB"/>
</g>
<defs>
<clipPath id="clip0_2_332">
<rect width="50" height="50" fill="white"/>
</clipPath>
</defs>
</svg>
