<svg width="150" height="150" viewBox="0 0 150 150" fill="none" xmlns="http://www.w3.org/2000/svg">
<rect width="150" height="150" rx="75" fill="#64A5EB" fill-opacity="0.5"/>
<g opacity="0.5">
<path d="M101.975 74.6134C101.852 74.736 101.707 74.8332 101.547 74.8995C101.387 74.9659 101.216 75 101.042 75C100.869 75 100.698 74.9659 100.538 74.8995C100.378 74.8332 100.232 74.736 100.11 74.6134L74.6806 49.1842L49.2514 74.6134C49.004 74.8608 48.6686 74.9997 48.3188 74.9997C47.969 74.9997 47.6336 74.8608 47.3863 74.6134C47.1389 74.3661 47 74.0307 47 73.6809C47 73.3311 47.1389 72.9957 47.3863 72.7483L73.748 46.3866C73.8704 46.264 74.0158 46.1668 74.1758 46.1005C74.3358 46.0341 74.5074 46 74.6806 46C74.8538 46 75.0253 46.0341 75.1853 46.1005C75.3453 46.1668 75.4907 46.264 75.6131 46.3866L101.975 72.7483C102.097 72.8707 102.195 73.0161 102.261 73.1761C102.327 73.3361 102.361 73.5077 102.361 73.6809C102.361 73.8541 102.327 74.0256 102.261 74.1856C102.195 74.3456 102.097 74.491 101.975 74.6134Z" fill="black"/>
<path d="M101.975 93.6134C101.852 93.736 101.707 93.8332 101.547 93.8995C101.387 93.9659 101.216 94 101.042 94C100.869 94 100.698 93.9659 100.538 93.8995C100.378 93.8332 100.232 93.736 100.11 93.6134L74.6806 68.1842L49.2514 93.6134C49.004 93.8608 48.6686 93.9997 48.3188 93.9997C47.969 93.9997 47.6336 93.8608 47.3863 93.6134C47.1389 93.3661 47 93.0307 47 92.6809C47 92.3311 47.1389 91.9957 47.3863 91.7483L73.748 65.3866C73.8704 65.264 74.0158 65.1668 74.1758 65.1005C74.3358 65.0341 74.5074 65 74.6806 65C74.8538 65 75.0253 65.0341 75.1853 65.1005C75.3453 65.1668 75.4907 65.264 75.6131 65.3866L101.975 91.7483C102.097 91.8707 102.195 92.0161 102.261 92.1761C102.327 92.3361 102.361 92.5077 102.361 92.6809C102.361 92.8541 102.327 93.0256 102.261 93.1856C102.195 93.3456 102.097 93.491 101.975 93.6134Z" fill="black"/>
<path d="M101.975 112.613C101.852 112.736 101.707 112.833 101.547 112.9C101.387 112.966 101.216 113 101.042 113C100.869 113 100.698 112.966 100.538 112.9C100.378 112.833 100.232 112.736 100.11 112.613L74.6806 87.1842L49.2514 112.613C49.004 112.861 48.6686 113 48.3188 113C47.969 113 47.6336 112.861 47.3863 112.613C47.1389 112.366 47 112.031 47 111.681C47 111.331 47.1389 110.996 47.3863 110.748L73.748 84.3866C73.8704 84.264 74.0158 84.1668 74.1758 84.1005C74.3358 84.0341 74.5074 84 74.6806 84C74.8538 84 75.0253 84.0341 75.1853 84.1005C75.3453 84.1668 75.4907 84.264 75.6131 84.3866L101.975 110.748C102.097 110.871 102.195 111.016 102.261 111.176C102.327 111.336 102.361 111.508 102.361 111.681C102.361 111.854 102.327 112.026 102.261 112.186C102.195 112.346 102.097 112.491 101.975 112.613Z" fill="black"/>
</g>
</svg>
