<svg width="96" height="42" viewBox="0 0 96 42" fill="none" xmlns="http://www.w3.org/2000/svg">
<path opacity="0.4" d="M48.6168 36.2575L88.8626 13.931C89.2533 13.7128 89.7188 13.5404 90.2317 13.424C90.7445 13.3076 91.2941 13.2495 91.8481 13.2533C92.402 13.257 92.949 13.3224 93.4566 13.4457C93.9642 13.569 94.4221 13.7476 94.8031 13.971C95.5839 14.4279 96.0131 15.0359 95.9997 15.6658C95.9862 16.2957 95.5312 16.8978 94.7311 17.3443L51.509 41.3208C51.1212 41.5377 50.6594 41.7095 50.1507 41.8261C49.642 41.9427 49.0965 42.0018 48.5462 42C47.9959 41.9981 47.4517 41.9353 46.9456 41.8153C46.4395 41.6952 45.9815 41.5203 45.5985 41.3008L1.22426 16.0643C0.438922 15.6125 0 15.009 0 14.381C0 13.7529 0.438922 13.1494 1.22426 12.6977C1.61017 12.4769 2.0719 12.3014 2.5821 12.1816C3.0923 12.0617 3.64061 12 4.19454 12C4.74848 12 5.29678 12.0617 5.80698 12.1816C6.31719 12.3014 6.77891 12.4769 7.16482 12.6977L48.6168 36.2575Z" fill="#008DD2"/>
<path opacity="0.4" d="M48.6168 24.2575L88.8626 1.93098C89.2533 1.71281 89.7188 1.54041 90.2317 1.424C90.7445 1.30758 91.2941 1.24952 91.8481 1.25325C92.402 1.25698 92.949 1.32243 93.4566 1.44571C93.9642 1.569 94.4221 1.74761 94.8031 1.97098C95.5839 2.42786 96.0131 3.03585 95.9997 3.66576C95.9862 4.29566 95.5312 4.89783 94.7311 5.34429L51.509 29.3208C51.1212 29.5377 50.6594 29.7095 50.1507 29.8261C49.642 29.9427 49.0965 30.0018 48.5462 30C47.9959 29.9981 47.4517 29.9353 46.9456 29.8153C46.4395 29.6952 45.9815 29.5203 45.5985 29.3008L1.22426 4.0643C0.438922 3.61252 0 3.00901 0 2.38098C0 1.75294 0.438922 1.14944 1.22426 0.697655C1.61017 0.476906 2.0719 0.301417 2.5821 0.181582C3.0923 0.0617463 3.64061 0 4.19454 0C4.74848 0 5.29678 0.0617463 5.80698 0.181582C6.31719 0.301417 6.77891 0.476906 7.16482 0.697655L48.6168 24.2575Z" fill="#008DD2"/>
</svg>
