<svg width="88" height="75" viewBox="0 0 88 75" fill="none" xmlns="http://www.w3.org/2000/svg">
<path d="M77.7599 1.55293C74.8908 14.8013 69.3046 42.0828 69.9121 45.2219C70.6716 49.1458 75.2284 50.0318 77.0004 47.88C78.4181 46.1585 84.2575 18.2189 87 4.46419M77.7599 1.55293C79.2788 4.28698 84.5528 4.63296 87 4.46419M77.7599 1.55293C79.9961 0.751273 84.9748 0.211213 87 4.46419" stroke="black" stroke-width="1.01261"/>
<path d="M1.68723 19.9061C7.46756 20.5812 20.294 19.9061 23.8382 11.2989L26.1165 7.75473M1.68723 19.9061C0.978398 19.501 0.927771 18.8091 1.05435 18.2606C2.69984 11.552 20.1674 9.14707 21.1801 9.14707C22.1927 9.14707 25.1039 7.375 25.7368 7.375C26.2431 7.375 26.2009 7.62815 26.1165 7.75473M1.68723 19.9061C2.50327 22.1564 3.59107 25.0879 4.75949 28.1336C7.57819 35.481 10.8661 43.4929 11.9399 44.2088C13.8386 45.4746 27.762 46.6138 31.4327 36.8674C29.1544 27.6273 24.9014 8.8686 26.1165 7.75473" stroke="black" stroke-width="1.01261"/>
<path d="M4.72504 28.1336C6.70807 28.5555 11.3577 28.8677 14.0917 26.7412" stroke="black" stroke-width="0.506307"/>
<path d="M6.37054 32.5632C8.35358 32.9852 13.0032 33.2974 15.7372 31.1709" stroke="black" stroke-width="0.506307"/>
<path d="M8.39575 37.1209C10.3788 37.5428 15.0284 37.855 17.7624 35.7285" stroke="black" stroke-width="0.506307"/>
<path d="M5.73767 30.5387C6.83467 30.7075 9.48434 30.9184 11.307 30.4121" stroke="black" stroke-width="0.506307"/>
<path d="M7.63629 35.0953C8.73329 35.2641 11.383 35.4751 13.2057 34.9688" stroke="black" stroke-width="0.506307"/>
<path d="M74.7347 16.728C75.6094 17.6224 77.5066 18.2605 80.0382 18.3871" stroke="black" stroke-width="0.506307"/>
<path d="M73.2983 21.3297C74.222 22.2479 76.1582 23.1526 78.899 23.3238" stroke="black" stroke-width="0.506307"/>
<path d="M72.5301 26.1411C73.4537 27.0593 74.8485 28.0072 77.5066 28.1338" stroke="black" stroke-width="0.506307"/>
<path d="M74.249 19.1656C74.7882 19.6154 76.1766 20.525 77.4166 20.5649" stroke="black" stroke-width="0.506307"/>
<path d="M73.3175 23.7799C73.8567 24.2297 75.2452 25.1393 76.4851 25.1791" stroke="black" stroke-width="0.506307"/>
<path d="M42.1918 23.1972C42.4449 23.4503 50.0395 24.8173 52.571 21.6782C52.9792 21.172 53.1242 20.7522 53.0647 20.4125M42.1918 23.1972C41.9387 22.944 42.0652 22.5643 42.0652 22.5643C42.9472 19.4774 52.6634 18.1189 53.0647 20.4125M42.1918 23.1972C43.7107 29.737 46.7485 43.2722 46.7485 45.0949C46.7485 47.3733 41.9386 72.4355 43.5841 73.3215C45.2296 74.2076 68.14 72.1823 72.6968 66.2332L57.6341 42.3102L53.0647 20.4125" stroke="black" stroke-width="1.01261"/>
<path d="M45.8625 52.1836C46.3688 52.1836 47.5333 52.1836 48.1409 52.1836" stroke="black" stroke-width="0.506307"/>
<path d="M44.5967 59.7773C45.7359 60.2837 46.3688 60.2837 47.0017 60.2837" stroke="black" stroke-width="0.506307"/>
<path d="M45.3556 55.6143C46.0317 55.8647 48.3705 56.2097 52.3173 55.5863" stroke="black" stroke-width="0.506307"/>
<path d="M44.116 63.7959C44.768 64.1037 47.0684 64.6492 51.0542 64.3685" stroke="black" stroke-width="0.506307"/>
</svg>
