<svg width="102" height="115" viewBox="0 0 102 115" fill="none" xmlns="http://www.w3.org/2000/svg">
<path d="M28.9033 40.7594C1.15754 67.2084 39.2574 94.3799 59.2856 78.3844C92.6196 51.7623 52.1179 18.6298 28.9033 40.7594Z" stroke="black" stroke-width="0.969604"/>
<path d="M63.7384 79.922C93.472 52.8233 60.4875 11.4971 26.5423 37.4946L28.998 40.4297M63.7384 79.922C66.5912 83.6582 72.5063 91.2086 73.344 91.5207C74.3911 91.9109 77.631 90.2562 79.9033 90.1068C81.7211 89.9873 81.678 91.8951 81.4292 92.8639L70.2794 101.251C69.9922 101.734 69.0842 102.245 67.7498 100.435C66.0817 98.1721 70.3008 95.2829 69.7385 93.5162C69.2887 92.1028 63.1427 85.8538 60.126 82.906C60.8037 82.3972 61.4563 81.8818 62.0843 81.3604M63.7384 79.922C63.2072 80.4062 62.6559 80.8858 62.0843 81.3604M59.6037 78.2081L62.0843 81.3604" stroke="black" stroke-width="0.969604"/>
<path d="M41.1856 52.9396C39.2269 52.8046 36.552 54.9962 35.4593 56.1089L33.9974 57.4721L34.2302 59.1441C34.0919 59.7285 33.7093 60.9561 33.2851 61.1909C32.861 61.4257 33.2155 62.9841 33.4459 63.7339L35.7521 64.3969C36.4577 64.8375 37.9659 65.4434 38.3538 64.3422C38.8387 62.9656 40.1452 63.0736 41.1109 62.8162C42.0767 62.5588 43.1691 64.032 43.5212 64.6683C43.803 65.1773 44.9565 65.2592 45.498 65.2365L46.5545 67.1452L48.59 67.8195L50.2826 69.3761C50.9731 69.4557 52.2954 69.5088 52.0607 69.0847C51.7672 68.5545 51.968 68.1663 52.5095 68.1436C52.9428 68.1255 52.9755 66.3158 52.9377 65.4132L51.4117 62.6561L49.5336 59.2627C48.8763 58.0751 49.4051 56.194 49.7517 55.4019C49.7177 54.5895 49.3884 52.9433 48.3431 52.8568C47.0366 52.7488 47.8149 51.9025 47.2867 50.9481L46.4063 49.3574L44.8971 50.8854C44.476 51.6264 43.1442 53.0746 41.1856 52.9396Z" stroke="black" stroke-width="0.484802"/>
<path d="M51.7845 43.056C51.0498 43.1301 50.9266 44.5928 50.9568 45.3149C51.0571 46.4138 51.1633 48.6914 50.7861 49.011C50.3146 49.4105 52.937 51.1452 53.9501 50.723C54.9631 50.3009 57.184 52.8119 58.3845 52.9786C59.585 53.1453 60.2439 53.3347 61.4217 52.9599C62.5995 52.5851 61.5204 50.1348 60.9922 49.1804C60.464 48.226 61.7385 46.2739 61.8579 45.2381C61.9773 44.2024 59.9911 42.1156 59.567 42.3503C59.1428 42.5851 58.6126 42.8785 57.0013 41.9695C55.3899 41.0605 54.4562 43.3781 53.926 43.6715C53.3958 43.965 52.7029 42.9633 51.7845 43.056Z" stroke="black" stroke-width="0.484802"/>
<path d="M34.3082 54.5293L31.1063 54.5006L29.6216 55.3223L28.1524 53.9191C27.9928 53.1301 27.9136 51.5855 28.874 51.7189C30.0745 51.8856 28.772 49.2819 27.9957 48.8804C27.3746 48.5592 27.0717 47.5447 26.9979 47.0777L28.8006 46.0799C28.99 45.421 29.4776 43.849 29.9124 42.8326C30.3472 41.8162 33.4869 40.531 35.0024 40.0155C36.0311 38.6704 37.6844 38.8543 38.3825 39.1144L40.4653 39.6239C42.6998 38.0548 44.041 39.0764 44.4322 39.7833L45.9735 40.3155C46.1691 40.669 46.24 41.4979 44.9584 41.9856C43.6769 42.4732 43.3071 44.0077 43.2825 44.714L43.928 45.8805L42.5495 46.6434C42.4112 47.2279 41.8427 48.4199 40.6747 48.5122C39.2148 48.6276 36.7265 51.39 35.9842 51.8009C35.3904 52.1295 34.6195 53.7568 34.3082 54.5293Z" stroke="black" stroke-width="0.484802"/>
<path d="M21.9493 53.474C21.0919 53.7269 21.2043 55.5486 21.3677 56.4279L21.3523 58.6528C21.1712 59.0763 20.7918 60.2929 20.7235 61.7713C20.6381 63.6194 23.4386 64.4244 22.9804 63.8468C22.6138 63.3848 23.7089 62.2431 24.3022 61.73L25.4707 59.8365C25.4992 59.2205 25.455 57.9059 25.0505 57.5756C24.6461 57.2454 25.6685 56.3563 26.2303 55.953C26.2708 55.1918 26.3093 53.6929 26.1396 53.7868C25.9699 53.8807 25.9618 52.1306 25.9789 51.2438L26.8766 49.3617L25.7027 47.2408L24.2182 48.0625L22.885 49.9086L22.8469 51.5919C22.905 52.1139 22.8067 53.2211 21.9493 53.474Z" stroke="black" stroke-width="0.484802"/>
<path d="M30.342 68.6381C29.3165 67.9866 26.8851 68.5658 25.7975 68.9369L25.8882 71.1031L28.5693 72.9438C29.3916 74.0124 31.1772 76.4042 31.7406 77.4223C32.304 78.4403 33.9433 79.066 34.6924 79.2516L35.5068 77.9698C35.2885 77.0748 34.7462 75.0938 34.3236 74.3303C33.7954 73.3759 34.9752 71.7533 34.9432 69.6931C34.9176 68.045 33.3497 67.4814 32.5689 67.4056C32.2539 68.0878 31.3675 69.2895 30.342 68.6381Z" stroke="black" stroke-width="0.484802"/>
<path d="M51.6673 4.45352L51.1702 2.25441L53.5027 2.50986L55.7285 0.875865L55.7203 3.29286L57.5485 4.78622C57.2208 4.9181 56.0174 5.26247 55.4566 5.41818L54.1308 8.90459C53.8053 9.35696 53.2566 7.41933 53.023 6.39397C52.9601 6.28032 51.3305 6.69155 50.5235 6.91137C50.1608 6.88943 51.1349 5.26366 51.6673 4.45352Z" stroke="black" stroke-width="0.606002"/>
<path d="M48.6141 14.455L48.117 12.2559L50.4495 12.5113L52.6753 10.8773L52.6671 13.2943L54.4953 14.7877C54.1676 14.9196 52.9642 15.2639 52.4035 15.4196L51.0776 18.9061C50.7521 19.3584 50.2034 17.4208 49.9698 16.3954C49.9069 16.2818 48.2773 16.693 47.4703 16.9128C47.1076 16.8909 48.0817 15.2651 48.6141 14.455Z" stroke="black" stroke-width="0.606002"/>
</svg>
