<svg width="50" height="50" viewBox="0 0 50 50" fill="none" xmlns="http://www.w3.org/2000/svg">
<path d="M22.9167 33.3332H26.0833C26.6356 33.3332 27.0833 33.7809 27.0833 34.3332V40.6665C27.0833 41.2188 26.6356 41.6665 26.0833 41.6665H22.9167M22.9167 20.8332H26.0833C26.6356 20.8332 27.0833 21.2809 27.0833 21.8332V28.1665C27.0833 28.7188 26.6356 29.1665 26.0833 29.1665H22.9167M22.9167 8.33317H26.0833C26.6356 8.33317 27.0833 8.78089 27.0833 9.33317V15.6665C27.0833 16.2188 26.6356 16.6665 26.0833 16.6665H22.9167M8.33334 44.8332C8.33334 45.3855 8.78105 45.8332 9.33334 45.8332H40.6667C41.219 45.8332 41.6667 45.3855 41.6667 44.8332V5.16651C41.6667 4.61422 41.219 4.1665 40.6667 4.1665H9.33333C8.78105 4.1665 8.33334 4.61422 8.33334 5.1665V44.8332Z" fill="#008DD2"/>
</svg>
