<svg width="388" height="299" viewBox="0 0 388 299" fill="none" xmlns="http://www.w3.org/2000/svg">
<path opacity="0.1" d="M64.4848 274.806C64.5377 274.834 64.5908 274.862 64.6441 274.89C81.5978 283.616 100.502 287.876 121.138 287.876C141.771 287.876 160.587 283.617 177.347 274.861C177.361 274.854 177.375 274.847 177.389 274.84C177.41 274.829 177.431 274.817 177.452 274.806C194.136 265.841 207.364 253.404 216.923 237.557C226.545 221.604 231.259 203.608 231.259 183.854C231.259 164.099 226.545 146.103 216.923 130.15C207.359 114.294 194.114 101.954 177.399 93.2118C160.632 84.2143 141.795 79.8313 121.138 79.8313C100.466 79.8313 81.5334 84.2198 64.5654 93.1973C47.8377 101.941 34.5835 114.285 25.0142 130.15C15.3918 146.103 10.6777 164.099 10.6777 183.854C10.6777 203.608 15.3918 221.604 25.0142 237.557C34.5727 253.404 47.8006 265.841 64.4848 274.806ZM146.979 213.781L146.974 213.785C140.488 220.613 132.176 224.175 121.138 224.175C110.124 224.175 101.653 220.624 94.9153 213.735C88.2812 206.737 84.5437 197.136 84.5437 183.854C84.5437 170.533 88.2994 161.096 94.8714 154.356C94.884 154.343 94.8966 154.33 94.9092 154.317C94.9257 154.3 94.9421 154.283 94.9584 154.265C101.723 147.153 110.181 143.532 121.138 143.532C132.094 143.532 140.381 147.148 146.888 154.169C146.947 154.232 147.006 154.294 147.066 154.356C153.637 161.096 157.393 170.533 157.393 183.854C157.393 197.165 153.64 206.778 146.979 213.781ZM319.449 275V147.598H354.688C360.302 147.598 364.853 143.047 364.853 137.433V96.7731C364.853 91.1591 360.302 86.608 354.688 86.608H318.156C318.478 80.7064 319.998 77.6069 321.46 76.0006C322.942 74.3727 325.793 72.7158 331.986 72.7158C338.223 72.7158 343.252 74.3245 347.483 77.3016C350.072 79.1238 353.362 79.6353 356.383 78.6852C359.403 77.7351 361.808 75.432 362.888 72.4556L376.78 34.1673C378.378 29.7646 376.76 24.8404 372.863 22.2424C366.85 18.2334 359.664 15.4719 351.624 13.6951C343.773 11.6868 335.52 10.709 326.903 10.709C302.667 10.709 282.424 17.3645 267.601 31.9177L267.575 31.9436C267.562 31.9568 267.548 31.9701 267.535 31.9833C253.05 46.4679 246.261 65.7532 246.261 88.641V275C246.261 280.614 250.812 285.165 256.426 285.165H309.284C314.898 285.165 319.449 280.614 319.449 275Z" stroke="#536171" stroke-width="20.3301" stroke-linejoin="round"/>
</svg>
