<svg width="50" height="50" viewBox="0 0 50 50" fill="none" xmlns="http://www.w3.org/2000/svg">
<path d="M42.1875 7.8125H7.8125C6.9837 7.8125 6.18884 8.14174 5.60279 8.72779C5.01674 9.31384 4.6875 10.1087 4.6875 10.9375V39.0625C4.6875 39.8913 5.01674 40.6862 5.60279 41.2722C6.18884 41.8583 6.9837 42.1875 7.8125 42.1875H10.4277C10.7235 42.1876 11.0131 42.1038 11.2631 41.9458C11.5131 41.7878 11.7131 41.5621 11.8398 41.2949C12.5996 39.6908 13.7992 38.3353 15.2991 37.3861C16.799 36.4369 18.5375 35.933 20.3125 35.933C22.0875 35.933 23.826 36.4369 25.3259 37.3861C26.8258 38.3353 28.0254 39.6908 28.7852 41.2949C28.9119 41.5621 29.1119 41.7878 29.3619 41.9458C29.6119 42.1038 29.9015 42.1876 30.1973 42.1875H42.1875C43.0163 42.1875 43.8112 41.8583 44.3972 41.2722C44.9833 40.6862 45.3125 39.8913 45.3125 39.0625V10.9375C45.3125 10.1087 44.9833 9.31384 44.3972 8.72779C43.8112 8.14174 43.0163 7.8125 42.1875 7.8125ZM15.625 28.125C15.625 27.1979 15.8999 26.2916 16.415 25.5208C16.9301 24.7499 17.6621 24.1491 18.5187 23.7943C19.3752 23.4395 20.3177 23.3467 21.227 23.5276C22.1363 23.7084 22.9715 24.1549 23.6271 24.8104C24.2826 25.466 24.7291 26.3012 24.9099 27.2105C25.0908 28.1198 24.998 29.0623 24.6432 29.9188C24.2884 30.7754 23.6876 31.5074 22.9167 32.0225C22.1459 32.5376 21.2396 32.8125 20.3125 32.8125C19.0693 32.8125 17.877 32.3186 16.9979 31.4396C16.1189 30.5605 15.625 29.3682 15.625 28.125ZM42.1875 39.0625H31.1387C29.8339 36.8192 27.867 35.0345 25.5078 33.9531C26.6906 32.9 27.5254 31.5122 27.9015 29.9738C28.2776 28.4354 28.1773 26.819 27.6138 25.3389C27.0504 23.8588 26.0504 22.5849 24.7465 21.6861C23.4425 20.7872 21.8962 20.3059 20.3125 20.3059C18.7288 20.3059 17.1825 20.7872 15.8785 21.6861C14.5746 22.5849 13.5746 23.8588 13.0112 25.3389C12.4477 26.819 12.3474 28.4354 12.7235 29.9738C13.0996 31.5122 13.9344 32.9 15.1172 33.9531C12.758 35.0345 10.7911 36.8192 9.48633 39.0625H7.8125V10.9375H42.1875V39.0625ZM10.9375 18.75V15.625C10.9375 15.2106 11.1021 14.8132 11.3951 14.5201C11.6882 14.2271 12.0856 14.0625 12.5 14.0625H37.5C37.9144 14.0625 38.3118 14.2271 38.6049 14.5201C38.8979 14.8132 39.0625 15.2106 39.0625 15.625V34.375C39.0625 34.7894 38.8979 35.1868 38.6049 35.4799C38.3118 35.7729 37.9144 35.9375 37.5 35.9375H34.375C33.9606 35.9375 33.5632 35.7729 33.2701 35.4799C32.9771 35.1868 32.8125 34.7894 32.8125 34.375C32.8125 33.9606 32.9771 33.5632 33.2701 33.2701C33.5632 32.9771 33.9606 32.8125 34.375 32.8125H35.9375V17.1875H14.0625V18.75C14.0625 19.1644 13.8979 19.5618 13.6049 19.8549C13.3118 20.1479 12.9144 20.3125 12.5 20.3125C12.0856 20.3125 11.6882 20.1479 11.3951 19.8549C11.1021 19.5618 10.9375 19.1644 10.9375 18.75Z" fill="#64A5EB"/>
</svg>
