<svg width="50" height="50" viewBox="0 0 50 50" fill="none" xmlns="http://www.w3.org/2000/svg">
<path d="M48.7891 16.6972L26.1329 4.19722C25.786 4.00572 25.3962 3.90527 25 3.90527C24.6038 3.90527 24.2141 4.00572 23.8672 4.19722L1.21098 16.6972C0.844644 16.8999 0.539292 17.197 0.326662 17.5577C0.114032 17.9183 0.00188828 18.3293 0.00188828 18.748C0.00188828 19.1667 0.114032 19.5777 0.326662 19.9383C0.539292 20.299 0.844644 20.5961 1.21098 20.7988L5.46879 23.1425V32.4707C5.46725 33.4309 5.8214 34.3577 6.46293 35.0722C9.10746 38.0273 15.0391 42.9687 25 42.9687C27.6454 42.9829 30.2783 42.6045 32.8125 41.8457V46.875C32.8125 47.4966 33.0595 48.0927 33.499 48.5322C33.9385 48.9718 34.5347 49.2187 35.1563 49.2187C35.7779 49.2187 36.374 48.9718 36.8136 48.5322C37.2531 48.0927 37.5 47.4966 37.5 46.875V39.8671C39.7636 38.6168 41.8038 36.9991 43.5371 35.08C44.1787 34.3655 44.5328 33.4387 44.5313 32.4785V23.1503L48.7891 20.8066C49.1554 20.6039 49.4608 20.3068 49.6734 19.9461C49.886 19.5855 49.9982 19.1745 49.9982 18.7558C49.9982 18.3371 49.886 17.9261 49.6734 17.5655C49.4608 17.2048 49.1554 16.9077 48.7891 16.705V16.6972ZM25 8.92769L42.8047 18.75L36.3282 22.3242C36.316 22.317 36.3043 22.3092 36.293 22.3007L26.1368 16.6972C25.5945 16.417 24.9643 16.3593 24.3802 16.5365C23.7961 16.7137 23.3042 17.1118 23.0091 17.6461C22.7139 18.1804 22.6389 18.8087 22.7999 19.3975C22.9609 19.9863 23.3452 20.489 23.8711 20.7988L31.4883 24.996L25 28.5742L7.19535 18.75L25 8.92769ZM25 38.2812C17.1055 38.2812 12.3731 34.5566 10.1563 32.1738V25.7285L23.8672 33.2949C24.2141 33.4864 24.6038 33.5868 25 33.5868C25.3962 33.5868 25.786 33.4864 26.1329 33.2949L32.8125 29.6171V36.8886C30.3169 37.8319 27.6679 38.3041 25 38.2812ZM39.8438 32.1738C39.1251 32.944 38.3409 33.6505 37.5 34.2851V27.0293L39.8438 25.7363V32.1738Z" fill="#64A5EB"/>
</svg>
