<svg width="50" height="50" viewBox="0 0 50 50" fill="none" xmlns="http://www.w3.org/2000/svg">
<path d="M30.7344 12.6716L26.3969 17.0107L20.4016 15.667C20.9672 14.8763 21.8328 13.0357 21.1265 12.3295C20.3187 11.5232 18.0359 12.767 17.5266 13.2748L16.1 14.7013L11.8969 13.7576L8.74061 16.9138L12.2281 18.5732L12.1 18.7013L14.7562 21.3576L15.8344 20.2857L20.7766 22.6357L14.9531 28.4529H10.0219L8.2453 30.231L13.8703 31.7123L16.7297 34.5716L18.2094 40.1935L19.9859 38.417V33.4841L25.8062 27.6638L28.1562 32.6076L27.0812 33.6795L29.7406 36.3357L29.8656 36.2107L31.5265 39.6951L34.6828 36.5388L33.7391 32.3388L35.164 30.9138C35.6734 30.4045 36.914 28.117 36.1078 27.3107C35.4 26.6045 33.5609 27.467 32.7703 28.0357L31.4266 22.0388L35.764 17.6998C37.2437 16.2185 41.3891 10.1013 39.8578 8.57477C38.3312 7.04664 32.2141 11.1888 30.7328 12.6685L30.7344 12.6716Z" fill="#008DD2"/>
</svg>
